<mxfile host="app.diagrams.net" modified="2023-12-28T12:05:32.286Z" agent="Mozilla/5.0 (Macintosh; Intel Mac OS X 10_15_7) AppleWebKit/605.1.15 (KHTML, like Gecko) Version/17.0 Safari/605.1.15" etag="K61-6XpMeVWUJ7ZHSr8j" version="22.1.11" type="device">
  <diagram name="Page-1" id="tRQWD2zCovnawk9IuxG4">
    <mxGraphModel dx="751" dy="464" grid="1" gridSize="10" guides="1" tooltips="1" connect="1" arrows="1" fold="1" page="1" pageScale="1" pageWidth="850" pageHeight="1100" math="0" shadow="0">
      <root>
        <mxCell id="0" />
        <mxCell id="1" parent="0" />
        <mxCell id="fTvhMZvRBzhXDoeik9R1-12" value="" style="rounded=1;whiteSpace=wrap;html=1;arcSize=7;fontFamily=Computer Modern;fontSource=https%3A%2F%2Ffonts.googleapis.com%2Fcss%3Ffamily%3DComputer%2BModern;" vertex="1" parent="1">
          <mxGeometry x="380" y="289" width="280" height="210" as="geometry" />
        </mxCell>
        <mxCell id="fTvhMZvRBzhXDoeik9R1-1" value="" style="rounded=0;whiteSpace=wrap;html=1;fontFamily=Computer Modern;fontSource=https%3A%2F%2Ffonts.googleapis.com%2Fcss%3Ffamily%3DComputer%2BModern;" vertex="1" parent="1">
          <mxGeometry x="560" y="590" width="80" height="20" as="geometry" />
        </mxCell>
        <mxCell id="fTvhMZvRBzhXDoeik9R1-2" value="" style="rounded=0;whiteSpace=wrap;html=1;fontFamily=Computer Modern;fontSource=https%3A%2F%2Ffonts.googleapis.com%2Fcss%3Ffamily%3DComputer%2BModern;" vertex="1" parent="1">
          <mxGeometry x="400" y="590" width="150" height="20" as="geometry" />
        </mxCell>
        <mxCell id="fTvhMZvRBzhXDoeik9R1-3" value="" style="rounded=0;whiteSpace=wrap;html=1;fontFamily=Computer Modern;fontSource=https%3A%2F%2Ffonts.googleapis.com%2Fcss%3Ffamily%3DComputer%2BModern;fillStyle=hatch;gradientColor=none;fillColor=#999999;" vertex="1" parent="1">
          <mxGeometry x="400" y="530" width="240" height="20" as="geometry" />
        </mxCell>
        <mxCell id="fTvhMZvRBzhXDoeik9R1-5" value="" style="endArrow=none;dashed=1;html=1;rounded=0;fontFamily=Computer Modern;fontSource=https%3A%2F%2Ffonts.googleapis.com%2Fcss%3Ffamily%3DComputer%2BModern;" edge="1" parent="1">
          <mxGeometry width="50" height="50" relative="1" as="geometry">
            <mxPoint x="390" y="580" as="sourcePoint" />
            <mxPoint x="660" y="580" as="targetPoint" />
          </mxGeometry>
        </mxCell>
        <mxCell id="fTvhMZvRBzhXDoeik9R1-6" value="Hardware" style="text;html=1;align=center;verticalAlign=middle;resizable=0;points=[];autosize=1;strokeColor=none;fillColor=none;fontStyle=1;fontFamily=Computer Modern;fontSource=https%3A%2F%2Ffonts.googleapis.com%2Fcss%3Ffamily%3DComputer%2BModern;" vertex="1" parent="1">
          <mxGeometry x="480" y="640" width="80" height="30" as="geometry" />
        </mxCell>
        <mxCell id="fTvhMZvRBzhXDoeik9R1-7" value="Operating System" style="text;html=1;align=center;verticalAlign=middle;resizable=0;points=[];autosize=1;strokeColor=none;fillColor=none;fontStyle=1;fontFamily=Computer Modern;fontSource=https%3A%2F%2Ffonts.googleapis.com%2Fcss%3Ffamily%3DComputer%2BModern;" vertex="1" parent="1">
          <mxGeometry x="460" y="550" width="120" height="30" as="geometry" />
        </mxCell>
        <mxCell id="fTvhMZvRBzhXDoeik9R1-8" value="" style="endArrow=none;dashed=1;html=1;rounded=0;fontFamily=Computer Modern;fontSource=https%3A%2F%2Ffonts.googleapis.com%2Fcss%3Ffamily%3DComputer%2BModern;" edge="1" parent="1">
          <mxGeometry width="50" height="50" relative="1" as="geometry">
            <mxPoint x="390" y="509" as="sourcePoint" />
            <mxPoint x="660" y="509" as="targetPoint" />
          </mxGeometry>
        </mxCell>
        <mxCell id="fTvhMZvRBzhXDoeik9R1-9" value="WebAssembly Runtime" style="text;html=1;align=right;verticalAlign=middle;resizable=0;points=[];autosize=1;strokeColor=none;fillColor=none;fontStyle=1;fontFamily=Computer Modern;fontSource=https%3A%2F%2Ffonts.googleapis.com%2Fcss%3Ffamily%3DComputer%2BModern;" vertex="1" parent="1">
          <mxGeometry x="450" y="289" width="140" height="30" as="geometry" />
        </mxCell>
        <mxCell id="fTvhMZvRBzhXDoeik9R1-13" value="" style="rounded=1;whiteSpace=wrap;html=1;dashed=1;dashPattern=8 8;arcSize=10;fontFamily=Computer Modern;fontSource=https%3A%2F%2Ffonts.googleapis.com%2Fcss%3Ffamily%3DComputer%2BModern;" vertex="1" parent="1">
          <mxGeometry x="400" y="330" width="150" height="99" as="geometry" />
        </mxCell>
        <mxCell id="fTvhMZvRBzhXDoeik9R1-11" value="Linear Memory" style="rounded=0;whiteSpace=wrap;html=1;fontFamily=Computer Modern;fontSource=https%3A%2F%2Ffonts.googleapis.com%2Fcss%3Ffamily%3DComputer%2BModern;fillColor=#D5E8D4;" vertex="1" parent="1">
          <mxGeometry x="410" y="399" width="130" height="20" as="geometry" />
        </mxCell>
        <mxCell id="fTvhMZvRBzhXDoeik9R1-14" value="" style="rounded=0;whiteSpace=wrap;html=1;fontFamily=Computer Modern;fontSource=https%3A%2F%2Ffonts.googleapis.com%2Fcss%3Ffamily%3DComputer%2BModern;" vertex="1" parent="1">
          <mxGeometry x="400" y="444" width="240" height="20" as="geometry" />
        </mxCell>
        <mxCell id="fTvhMZvRBzhXDoeik9R1-15" value="" style="endArrow=none;html=1;rounded=0;entryX=0;entryY=1;entryDx=0;entryDy=0;exitX=0.25;exitY=0;exitDx=0;exitDy=0;fontFamily=Computer Modern;fontSource=https%3A%2F%2Ffonts.googleapis.com%2Fcss%3Ffamily%3DComputer%2BModern;" edge="1" parent="1" source="fTvhMZvRBzhXDoeik9R1-14" target="fTvhMZvRBzhXDoeik9R1-11">
          <mxGeometry width="50" height="50" relative="1" as="geometry">
            <mxPoint x="380" y="459" as="sourcePoint" />
            <mxPoint x="430" y="409" as="targetPoint" />
          </mxGeometry>
        </mxCell>
        <mxCell id="fTvhMZvRBzhXDoeik9R1-16" value="" style="endArrow=none;html=1;rounded=0;entryX=1;entryY=1;entryDx=0;entryDy=0;exitX=0.5;exitY=0;exitDx=0;exitDy=0;fontFamily=Computer Modern;fontSource=https%3A%2F%2Ffonts.googleapis.com%2Fcss%3Ffamily%3DComputer%2BModern;" edge="1" parent="1" source="fTvhMZvRBzhXDoeik9R1-14" target="fTvhMZvRBzhXDoeik9R1-11">
          <mxGeometry width="50" height="50" relative="1" as="geometry">
            <mxPoint x="380" y="459" as="sourcePoint" />
            <mxPoint x="430" y="409" as="targetPoint" />
          </mxGeometry>
        </mxCell>
        <mxCell id="fTvhMZvRBzhXDoeik9R1-17" value="" style="rounded=0;whiteSpace=wrap;html=1;fillColor=#d5e8d4;strokeColor=#000000;fontFamily=Computer Modern;fontSource=https%3A%2F%2Ffonts.googleapis.com%2Fcss%3Ffamily%3DComputer%2BModern;" vertex="1" parent="1">
          <mxGeometry x="460" y="444" width="60" height="20" as="geometry" />
        </mxCell>
        <mxCell id="fTvhMZvRBzhXDoeik9R1-18" value="" style="rounded=0;whiteSpace=wrap;html=1;fillColor=#FFE599;strokeColor=#000000;fontFamily=Computer Modern;fontSource=https%3A%2F%2Ffonts.googleapis.com%2Fcss%3Ffamily%3DComputer%2BModern;" vertex="1" parent="1">
          <mxGeometry x="530" y="444" width="40" height="20" as="geometry" />
        </mxCell>
        <mxCell id="fTvhMZvRBzhXDoeik9R1-19" value="" style="rounded=0;whiteSpace=wrap;html=1;fillColor=#FFCE9F;strokeColor=#000000;fontFamily=Computer Modern;fontSource=https%3A%2F%2Ffonts.googleapis.com%2Fcss%3Ffamily%3DComputer%2BModern;" vertex="1" parent="1">
          <mxGeometry x="580" y="444" width="40" height="20" as="geometry" />
        </mxCell>
        <mxCell id="fTvhMZvRBzhXDoeik9R1-20" value="" style="rounded=1;whiteSpace=wrap;html=1;dashed=1;dashPattern=8 8;arcSize=10;fontFamily=Computer Modern;fontSource=https%3A%2F%2Ffonts.googleapis.com%2Fcss%3Ffamily%3DComputer%2BModern;" vertex="1" parent="1">
          <mxGeometry x="560" y="330" width="40" height="99" as="geometry" />
        </mxCell>
        <mxCell id="fTvhMZvRBzhXDoeik9R1-21" value="" style="rounded=0;whiteSpace=wrap;html=1;fontFamily=Computer Modern;fontSource=https%3A%2F%2Ffonts.googleapis.com%2Fcss%3Ffamily%3DComputer%2BModern;fillColor=#FFE599;" vertex="1" parent="1">
          <mxGeometry x="570" y="399" width="20" height="20" as="geometry" />
        </mxCell>
        <mxCell id="fTvhMZvRBzhXDoeik9R1-22" value="" style="endArrow=none;html=1;rounded=0;entryX=0;entryY=1;entryDx=0;entryDy=0;exitX=0;exitY=0;exitDx=0;exitDy=0;fontFamily=Computer Modern;fontSource=https%3A%2F%2Ffonts.googleapis.com%2Fcss%3Ffamily%3DComputer%2BModern;" edge="1" parent="1" source="fTvhMZvRBzhXDoeik9R1-18" target="fTvhMZvRBzhXDoeik9R1-21">
          <mxGeometry width="50" height="50" relative="1" as="geometry">
            <mxPoint x="470" y="464" as="sourcePoint" />
            <mxPoint x="420" y="429" as="targetPoint" />
          </mxGeometry>
        </mxCell>
        <mxCell id="fTvhMZvRBzhXDoeik9R1-23" value="" style="endArrow=none;html=1;rounded=0;entryX=1;entryY=1;entryDx=0;entryDy=0;exitX=1;exitY=0;exitDx=0;exitDy=0;fontFamily=Computer Modern;fontSource=https%3A%2F%2Ffonts.googleapis.com%2Fcss%3Ffamily%3DComputer%2BModern;" edge="1" parent="1" source="fTvhMZvRBzhXDoeik9R1-18" target="fTvhMZvRBzhXDoeik9R1-21">
          <mxGeometry width="50" height="50" relative="1" as="geometry">
            <mxPoint x="540" y="464" as="sourcePoint" />
            <mxPoint x="580" y="429" as="targetPoint" />
          </mxGeometry>
        </mxCell>
        <mxCell id="fTvhMZvRBzhXDoeik9R1-24" value="" style="rounded=1;whiteSpace=wrap;html=1;dashed=1;dashPattern=8 8;arcSize=10;fontFamily=Computer Modern;fontSource=https%3A%2F%2Ffonts.googleapis.com%2Fcss%3Ffamily%3DComputer%2BModern;" vertex="1" parent="1">
          <mxGeometry x="610" y="330" width="40" height="99" as="geometry" />
        </mxCell>
        <mxCell id="fTvhMZvRBzhXDoeik9R1-25" value="" style="rounded=0;whiteSpace=wrap;html=1;fontFamily=Computer Modern;fontSource=https%3A%2F%2Ffonts.googleapis.com%2Fcss%3Ffamily%3DComputer%2BModern;fillColor=#FFCE9F;" vertex="1" parent="1">
          <mxGeometry x="620" y="399" width="20" height="20" as="geometry" />
        </mxCell>
        <mxCell id="fTvhMZvRBzhXDoeik9R1-26" value="" style="endArrow=none;html=1;rounded=0;entryX=0;entryY=1;entryDx=0;entryDy=0;exitX=0;exitY=0;exitDx=0;exitDy=0;fontFamily=Computer Modern;fontSource=https%3A%2F%2Ffonts.googleapis.com%2Fcss%3Ffamily%3DComputer%2BModern;" edge="1" parent="1" target="fTvhMZvRBzhXDoeik9R1-25" source="fTvhMZvRBzhXDoeik9R1-19">
          <mxGeometry width="50" height="50" relative="1" as="geometry">
            <mxPoint x="580" y="454" as="sourcePoint" />
            <mxPoint x="470" y="429" as="targetPoint" />
          </mxGeometry>
        </mxCell>
        <mxCell id="fTvhMZvRBzhXDoeik9R1-27" value="" style="endArrow=none;html=1;rounded=0;entryX=1;entryY=1;entryDx=0;entryDy=0;exitX=1;exitY=0;exitDx=0;exitDy=0;fontFamily=Computer Modern;fontSource=https%3A%2F%2Ffonts.googleapis.com%2Fcss%3Ffamily%3DComputer%2BModern;" edge="1" parent="1" target="fTvhMZvRBzhXDoeik9R1-25" source="fTvhMZvRBzhXDoeik9R1-19">
          <mxGeometry width="50" height="50" relative="1" as="geometry">
            <mxPoint x="620" y="454" as="sourcePoint" />
            <mxPoint x="630" y="429" as="targetPoint" />
          </mxGeometry>
        </mxCell>
        <mxCell id="fTvhMZvRBzhXDoeik9R1-28" value="Code" style="rounded=0;whiteSpace=wrap;html=1;fontFamily=Computer Modern;fontSource=https%3A%2F%2Ffonts.googleapis.com%2Fcss%3Ffamily%3DComputer%2BModern;" vertex="1" parent="1">
          <mxGeometry x="410" y="364" width="130" height="20" as="geometry" />
        </mxCell>
        <mxCell id="fTvhMZvRBzhXDoeik9R1-29" value="" style="rounded=0;whiteSpace=wrap;html=1;fontFamily=Computer Modern;fontSource=https%3A%2F%2Ffonts.googleapis.com%2Fcss%3Ffamily%3DComputer%2BModern;" vertex="1" parent="1">
          <mxGeometry x="570" y="364" width="20" height="20" as="geometry" />
        </mxCell>
        <mxCell id="fTvhMZvRBzhXDoeik9R1-30" value="" style="rounded=0;whiteSpace=wrap;html=1;fontFamily=Computer Modern;fontSource=https%3A%2F%2Ffonts.googleapis.com%2Fcss%3Ffamily%3DComputer%2BModern;" vertex="1" parent="1">
          <mxGeometry x="620" y="364" width="20" height="20" as="geometry" />
        </mxCell>
        <mxCell id="fTvhMZvRBzhXDoeik9R1-31" value="Virtual Memory" style="text;html=1;align=center;verticalAlign=middle;resizable=0;points=[];autosize=1;strokeColor=none;fillColor=none;fontFamily=Computer Modern;fontSource=https%3A%2F%2Ffonts.googleapis.com%2Fcss%3Ffamily%3DComputer%2BModern;" vertex="1" parent="1">
          <mxGeometry x="470" y="505" width="100" height="30" as="geometry" />
        </mxCell>
        <mxCell id="fTvhMZvRBzhXDoeik9R1-32" value="Runtime Address Space" style="text;html=1;align=center;verticalAlign=middle;resizable=0;points=[];autosize=1;strokeColor=none;fillColor=none;fontFamily=Computer Modern;fontSource=https%3A%2F%2Ffonts.googleapis.com%2Fcss%3Ffamily%3DComputer%2BModern;" vertex="1" parent="1">
          <mxGeometry x="450" y="464" width="140" height="30" as="geometry" />
        </mxCell>
        <mxCell id="fTvhMZvRBzhXDoeik9R1-33" value="" style="endArrow=none;html=1;rounded=0;exitX=0;exitY=1;exitDx=0;exitDy=0;entryX=0.25;entryY=0;entryDx=0;entryDy=0;fontFamily=Computer Modern;fontSource=https%3A%2F%2Ffonts.googleapis.com%2Fcss%3Ffamily%3DComputer%2BModern;" edge="1" parent="1" source="fTvhMZvRBzhXDoeik9R1-14" target="fTvhMZvRBzhXDoeik9R1-3">
          <mxGeometry width="50" height="50" relative="1" as="geometry">
            <mxPoint x="450" y="570" as="sourcePoint" />
            <mxPoint x="370" y="790" as="targetPoint" />
          </mxGeometry>
        </mxCell>
        <mxCell id="fTvhMZvRBzhXDoeik9R1-34" value="" style="endArrow=none;html=1;rounded=0;entryX=0.75;entryY=0;entryDx=0;entryDy=0;exitX=1;exitY=1;exitDx=0;exitDy=0;fontFamily=Computer Modern;fontSource=https%3A%2F%2Ffonts.googleapis.com%2Fcss%3Ffamily%3DComputer%2BModern;" edge="1" parent="1" source="fTvhMZvRBzhXDoeik9R1-14" target="fTvhMZvRBzhXDoeik9R1-3">
          <mxGeometry width="50" height="50" relative="1" as="geometry">
            <mxPoint x="780" y="580" as="sourcePoint" />
            <mxPoint x="470" y="540" as="targetPoint" />
          </mxGeometry>
        </mxCell>
        <mxCell id="fTvhMZvRBzhXDoeik9R1-35" value="" style="rounded=0;whiteSpace=wrap;html=1;fontFamily=Computer Modern;fontSource=https%3A%2F%2Ffonts.googleapis.com%2Fcss%3Ffamily%3DComputer%2BModern;" vertex="1" parent="1">
          <mxGeometry x="460" y="530" width="120" height="20" as="geometry" />
        </mxCell>
        <mxCell id="fTvhMZvRBzhXDoeik9R1-36" value="" style="rounded=0;whiteSpace=wrap;html=1;fillColor=#d5e8d4;strokeColor=#000000;fontFamily=Computer Modern;fontSource=https%3A%2F%2Ffonts.googleapis.com%2Fcss%3Ffamily%3DComputer%2BModern;" vertex="1" parent="1">
          <mxGeometry x="480" y="530" width="30" height="20" as="geometry" />
        </mxCell>
        <mxCell id="fTvhMZvRBzhXDoeik9R1-37" value="" style="rounded=0;whiteSpace=wrap;html=1;fillColor=#FFE599;strokeColor=#000000;fontFamily=Computer Modern;fontSource=https%3A%2F%2Ffonts.googleapis.com%2Fcss%3Ffamily%3DComputer%2BModern;" vertex="1" parent="1">
          <mxGeometry x="520" y="530" width="20" height="20" as="geometry" />
        </mxCell>
        <mxCell id="fTvhMZvRBzhXDoeik9R1-38" value="" style="rounded=0;whiteSpace=wrap;html=1;fillColor=#FFCE9F;strokeColor=#000000;fontFamily=Computer Modern;fontSource=https%3A%2F%2Ffonts.googleapis.com%2Fcss%3Ffamily%3DComputer%2BModern;" vertex="1" parent="1">
          <mxGeometry x="550" y="530" width="20" height="20" as="geometry" />
        </mxCell>
        <mxCell id="fTvhMZvRBzhXDoeik9R1-40" value="Physical Memory" style="text;html=1;align=center;verticalAlign=middle;resizable=0;points=[];autosize=1;strokeColor=none;fillColor=none;fontFamily=Computer Modern;fontSource=https%3A%2F%2Ffonts.googleapis.com%2Fcss%3Ffamily%3DComputer%2BModern;" vertex="1" parent="1">
          <mxGeometry x="420" y="610" width="110" height="30" as="geometry" />
        </mxCell>
        <mxCell id="fTvhMZvRBzhXDoeik9R1-41" value="Tag Memory" style="text;html=1;align=center;verticalAlign=middle;resizable=0;points=[];autosize=1;strokeColor=none;fillColor=none;fontFamily=Computer Modern;fontSource=https%3A%2F%2Ffonts.googleapis.com%2Fcss%3Ffamily%3DComputer%2BModern;" vertex="1" parent="1">
          <mxGeometry x="555" y="610" width="90" height="30" as="geometry" />
        </mxCell>
        <mxCell id="fTvhMZvRBzhXDoeik9R1-43" value="" style="rounded=0;whiteSpace=wrap;html=1;fillColor=#FFCE9F;strokeColor=#000000;fontFamily=Computer Modern;fontSource=https%3A%2F%2Ffonts.googleapis.com%2Fcss%3Ffamily%3DComputer%2BModern;" vertex="1" parent="1">
          <mxGeometry x="612" y="590" width="10" height="20" as="geometry" />
        </mxCell>
        <mxCell id="fTvhMZvRBzhXDoeik9R1-44" value="" style="rounded=0;whiteSpace=wrap;html=1;fillColor=#FFE599;strokeColor=#000000;fontFamily=Computer Modern;fontSource=https%3A%2F%2Ffonts.googleapis.com%2Fcss%3Ffamily%3DComputer%2BModern;" vertex="1" parent="1">
          <mxGeometry x="600" y="590" width="10" height="20" as="geometry" />
        </mxCell>
        <mxCell id="fTvhMZvRBzhXDoeik9R1-45" value="" style="rounded=0;whiteSpace=wrap;html=1;fillColor=#d5e8d4;strokeColor=#000000;fontFamily=Computer Modern;fontSource=https%3A%2F%2Ffonts.googleapis.com%2Fcss%3Ffamily%3DComputer%2BModern;" vertex="1" parent="1">
          <mxGeometry x="578" y="590" width="18" height="20" as="geometry" />
        </mxCell>
        <mxCell id="fTvhMZvRBzhXDoeik9R1-47" value="&lt;font face=&quot;Computer Modern&quot;&gt;WASM Instance #1&lt;/font&gt;" style="text;html=1;align=center;verticalAlign=middle;resizable=0;points=[];autosize=1;strokeColor=none;fillColor=none;" vertex="1" parent="1">
          <mxGeometry x="415" y="334" width="120" height="30" as="geometry" />
        </mxCell>
        <mxCell id="fTvhMZvRBzhXDoeik9R1-48" value="&lt;font face=&quot;Computer Modern&quot;&gt;#2&lt;/font&gt;" style="text;html=1;align=center;verticalAlign=middle;resizable=0;points=[];autosize=1;strokeColor=none;fillColor=none;" vertex="1" parent="1">
          <mxGeometry x="560" y="334" width="40" height="30" as="geometry" />
        </mxCell>
        <mxCell id="fTvhMZvRBzhXDoeik9R1-49" value="&lt;font face=&quot;Computer Modern&quot;&gt;#n&lt;/font&gt;" style="text;html=1;align=center;verticalAlign=middle;resizable=0;points=[];autosize=1;strokeColor=none;fillColor=none;" vertex="1" parent="1">
          <mxGeometry x="610" y="334" width="40" height="30" as="geometry" />
        </mxCell>
      </root>
    </mxGraphModel>
  </diagram>
</mxfile>
